<svg width="14" height="14" viewBox="0 0 14 14" fill="none" xmlns="http://www.w3.org/2000/svg">
<path d="M6.99998 4.66667C7.64165 4.66667 8.16665 4.14167 8.16665 3.5C8.16665 2.85834 7.64165 2.33334 6.99998 2.33334C6.35831 2.33334 5.83331 2.85834 5.83331 3.5C5.83331 4.14167 6.35831 4.66667 6.99998 4.66667ZM6.99998 5.83334C6.35831 5.83334 5.83331 6.35834 5.83331 7C5.83331 7.64167 6.35831 8.16667 6.99998 8.16667C7.64165 8.16667 8.16665 7.64167 8.16665 7C8.16665 6.35834 7.64165 5.83334 6.99998 5.83334ZM6.99998 9.33333C6.35831 9.33333 5.83331 9.85834 5.83331 10.5C5.83331 11.1417 6.35831 11.6667 6.99998 11.6667C7.64165 11.6667 8.16665 11.1417 8.16665 10.5C8.16665 9.85834 7.64165 9.33333 6.99998 9.33333Z" fill="#3E52BE"/>
</svg>
